<?xml version="1.0"?>
<svg xmlns="http://www.w3.org/2000/svg" viewBox="0 0 26 26" enable-background="new 0 0 26 26">
    <path d="M 8 0 C 5.8 0 4 1.8 4 4 L 4 11 L 1 11 C 0.4 11 0 11.5 0 12 L 0 18 C 0 18.5 0.4 19 1 19 L 4 19 L 4 22 C 4 24.2 5.8 26 8 26 L 20 26 C 22.2 26 24 24.2 24 22 L 24 8 C 24 6.9 23.0125 5.8875 21.3125 4.1875 C 21.0125 3.9875 20.8 3.7 20.5 3.5 C 20.3 3.2 20.0125 2.9875 19.8125 2.6875 C 18.1125 0.9875 17.1 5.9211895e-16 16 0 L 8 0 z M 8 2 L 15.3125 2 C 16.0125 2.2 16 3.1 16 4 L 16 7 C 16 7.6 16.4 8 17 8 L 20 8 C 21 8 22 8 22 9 L 22 22 C 22 23.1 21.1 24 20 24 L 8 24 C 6.9 24 6 23.1 6 22 L 6 19 L 17 19 C 17.6 19 18 18.5 18 18 L 18 12 C 18 11.5 17.6 11 17 11 L 6 11 L 6 4 C 6 2.9 6.9 2 8 2 z M 4.90625 11.90625 C 5.60625 11.90625 6.1125 11.9875 6.3125 12.1875 L 6.40625 12.3125 L 6.09375 13.3125 C 6.09375 13.3125 6.1 13.40625 6 13.40625 L 5.90625 13.40625 C 5.70625 13.30625 5.40625 13.1875 4.90625 13.1875 C 3.90625 13.1875 3.3125 13.80625 3.3125 14.90625 C 3.3125 15.90625 3.90625 16.5 4.90625 16.5 C 5.30625 16.5 5.60625 16.4125 5.90625 16.3125 L 6 16.3125 L 6 16.40625 L 6.1875 17.40625 C 6.1875 17.50625 6.19375 17.5 6.09375 17.5 C 5.79375 17.6 5.2875 17.6875 4.6875 17.6875 C 2.8875 17.6875 1.8125 16.60625 1.8125 14.90625 C 1.8125 13.10625 3.00625 11.90625 4.90625 11.90625 z M 9.09375 11.90625 C 9.69375 11.90625 10.1 11.9875 10.5 12.1875 C 10.6 12.1875 10.59375 12.3125 10.59375 12.3125 L 10.3125 13.3125 C 10.3125 13.3125 10.2875 13.40625 10.1875 13.40625 L 10.09375 13.40625 C 9.89375 13.30625 9.5 13.1875 9 13.1875 C 8.5 13.1875 8.3125 13.39375 8.3125 13.59375 C 8.3125 13.79375 8.4875 13.9875 9.1875 14.1875 C 10.1875 14.5875 10.6875 15.10625 10.6875 15.90625 C 10.8875 16.80625 10.29375 17.6875 8.59375 17.6875 C 7.89375 17.6875 7.3 17.5125 7 17.3125 L 6.90625 17.1875 L 7.09375 16.1875 C 7.09375 16.1875 7.0875 16.09375 7.1875 16.09375 L 7.3125 16.09375 C 7.6125 16.29375 8.09375 16.40625 8.59375 16.40625 C 8.79375 16.40625 9.3125 16.40625 9.3125 15.90625 C 9.3125 15.70625 9.2 15.5125 8.5 15.3125 C 7.5 14.9125 6.90625 14.29375 6.90625 13.59375 C 6.90625 12.59375 7.79375 11.90625 9.09375 11.90625 z M 13.8125 11.90625 C 14.4125 11.90625 14.7875 11.9875 15.1875 12.1875 C 15.2875 12.1875 15.3125 12.3125 15.3125 12.3125 L 15 13.3125 C 15 13.3125 15.00625 13.40625 14.90625 13.40625 L 14.8125 13.40625 C 14.6125 13.30625 14.1875 13.1875 13.6875 13.1875 C 13.1875 13.1875 13 13.39375 13 13.59375 C 13 13.79375 13.20625 13.9875 13.90625 14.1875 C 14.90625 14.5875 15.40625 15.10625 15.40625 15.90625 C 15.60625 16.80625 15.0125 17.6875 13.3125 17.6875 C 12.6125 17.6875 11.9875 17.5125 11.6875 17.3125 L 11.59375 17.1875 L 11.8125 16.1875 C 11.8125 16.1875 11.80625 16.09375 11.90625 16.09375 L 12 16.09375 C 12.3 16.29375 12.8125 16.40625 13.3125 16.40625 C 13.5125 16.40625 14 16.40625 14 15.90625 C 14 15.70625 13.8875 15.5125 13.1875 15.3125 C 12.1875 14.9125 11.59375 14.29375 11.59375 13.59375 C 11.59375 12.59375 12.5125 11.90625 13.8125 11.90625 z"/>
</svg>
